<?xml version="1.0" encoding="UTF-8"?>
<svg xmlns="http://www.w3.org/2000/svg" xmlns:xlink="http://www.w3.org/1999/xlink" width="3000" height="3000" viewBox="0 0 3000 3000">
<path fill-rule="nonzero" fill="rgb(59.959412%, 71.484375%, 94.921875%)" fill-opacity="1" d="M 1106.160156 2859.179688 L 1109.699219 2786.339844 C 1114.078125 2696.101562 1105.46875 2605.828125 1084.109375 2517.03125 C 1067.191406 2535.421875 1048.921875 2551.230469 1032.601562 2563.828125 C 987.988281 2598.269531 938.851562 2623.980469 891.328125 2648.851562 L 780.269531 2706.960938 L 812.488281 2642.371094 C 797.339844 2652.898438 781.738281 2663.308594 765.929688 2673.210938 L 659.820312 2739.660156 L 706.800781 2623.589844 C 769.351562 2469.089844 801.328125 2297.011719 799.289062 2125.980469 C 797.339844 1963.800781 764.820312 1801.351562 705 1654.5 C 676.5 1654.5 646.710938 1657.53125 617.609375 1663.378906 C 621.75 1690.859375 627.511719 1719.089844 634.648438 1746.628906 L 649.648438 1804.53125 L 590.308594 1797.058594 C 457.859375 1780.378906 337.738281 1690.5 276.839844 1562.519531 C 220.921875 1444.980469 216.449219 1303.351562 264.601562 1173.988281 C 306.539062 1061.339844 388.828125 959.371094 492.121094 891.359375 C 502.828125 799.890625 552.570312 725.609375 594.089844 678.121094 C 642.570312 622.648438 699.449219 579.089844 759.660156 532.980469 C 766.738281 527.550781 773.878906 522.089844 781.019531 516.570312 L 837.238281 473.28125 L 839.550781 491.761719 C 868.980469 468.210938 903.449219 446.519531 943.441406 426.300781 C 982.679688 406.46875 1023.300781 389.851562 1062.570312 373.769531 C 1083.238281 365.308594 1104.628906 356.550781 1125.238281 347.550781 C 1231.558594 301.109375 1332.449219 241.441406 1425.660156 183.871094 L 1495.289062 140.851562 L 1487.339844 222.300781 C 1484.609375 250.320312 1479.871094 278.820312 1472.578125 310.140625 C 1672.648438 251.039062 1869.058594 217.5 2057.460938 210.300781 L 2153.191406 206.640625 L 2089.199219 277.949219 C 2044.621094 327.628906 1996.230469 377.070312 1939.621094 430.648438 C 2125.109375 487.109375 2315.789062 545.761719 2508.359375 610.800781 L 2580.839844 635.28125 L 2519.878906 681.539062 C 2492.371094 702.421875 2464.648438 720.988281 2435.519531 737.941406 C 2459.488281 746.878906 2483.699219 755.25 2507.519531 763.5 C 2515.738281 766.351562 2523.929688 769.199219 2532.121094 772.050781 L 2597.128906 794.761719 L 2545.769531 840.601562 C 2525.339844 858.839844 2504.101562 876.300781 2483.519531 893.191406 C 2468.96875 905.128906 2454.179688 917.308594 2439.601562 929.820312 C 2568.148438 1026.328125 2673.121094 1152.121094 2744.96875 1296.238281 L 2768.519531 1343.519531 L 2716.769531 1354.109375 C 2699.101562 1357.710938 2681.96875 1361.21875 2665.679688 1366.078125 C 2740.921875 1523.25 2738.578125 1716.480469 2656.890625 1870.738281 L 2615.308594 1949.28125 L 2583.210938 1866.421875 C 2579.371094 1856.460938 2574.988281 1846.921875 2570.128906 1837.710938 C 2571.78125 1912.800781 2563.949219 1989.148438 2546.699219 2063.429688 C 2519.761719 2179.46875 2469.660156 2291.609375 2401.769531 2387.699219 L 2350.5 2460.300781 L 2329.261719 2373.988281 C 2309.789062 2294.910156 2275.710938 2223.898438 2229.390625 2165.25 C 2191.800781 2288.011719 2116.109375 2402.460938 2014.800781 2487.328125 L 1996.441406 2502.71875 L 1974.089844 2494.078125 C 1887.449219 2460.539062 1809.058594 2420.460938 1740.328125 2374.621094 C 1719.421875 2418.359375 1694.460938 2462.730469 1666.890625 2505.121094 L 1629.839844 2562.058594 L 1597.261719 2502.449219 C 1568.519531 2449.859375 1536.121094 2400 1499.25 2351.820312 C 1489.738281 2428.261719 1463.21875 2505.75 1421.128906 2577.808594 C 1360.980469 2680.800781 1274.070312 2765.878906 1169.789062 2823.808594 L 1106.160156 2859.179688 "/>
<path fill-rule="nonzero" fill="rgb(10.205078%, 0.39978%, 9.008789%)" fill-opacity="1" d="M 2608.828125 1345.558594 C 2698.859375 1497.238281 2703.660156 1695.929688 2621.101562 1851.78125 C 2598.328125 1793.011719 2561.820312 1750.019531 2517.871094 1716.808594 C 2556.71875 1939.769531 2500.378906 2177.878906 2368.679688 2364.300781 C 2341.769531 2254.949219 2286.929688 2155.53125 2207.671875 2081.96875 C 2183.191406 2224.890625 2103.03125 2360.488281 1988.789062 2456.25 C 1897.050781 2420.730469 1805.101562 2373.871094 1723.5 2313.089844 C 1700.488281 2368.320312 1669.199219 2427.269531 1632.960938 2483.011719 C 1582.46875 2390.609375 1524.808594 2312.910156 1460.128906 2241.601562 C 1472.160156 2349.71875 1442.398438 2461.171875 1386.210938 2557.351562 C 1330.019531 2653.558594 1247.578125 2734.230469 1150.199219 2788.320312 C 1156.410156 2659.859375 1137.390625 2535.71875 1097.820312 2418.480469 C 1086.03125 2459.070312 1049.460938 2499.570312 1007.789062 2531.761719 C 966.121094 2563.949219 919.171875 2588.519531 872.519531 2612.941406 C 884.640625 2588.609375 893.820312 2558.671875 897.121094 2528.070312 C 853.351562 2562.511719 800.699219 2603.609375 744.390625 2638.859375 C 875.941406 2313.808594 871.378906 1936.441406 732.328125 1614.808594 C 682.710938 1611.601562 626.429688 1617.300781 572.851562 1632.480469 C 576.78125 1671.75 584.460938 1714.710938 595.378906 1756.800781 C 471.691406 1741.230469 366.03125 1655.519531 313.46875 1545.089844 C 260.910156 1434.660156 259.949219 1302.71875 302.609375 1188.121094 C 345.269531 1073.519531 429.449219 976.410156 530.878906 914.820312 C 534.480469 836.761719 573.210938 763.621094 624.628906 704.789062 C 676.050781 645.960938 739.859375 599.488281 805.800781 548.699219 C 807.058594 558.808594 808.320312 568.921875 807.421875 580.589844 C 847.949219 529.378906 903.480469 491.941406 961.769531 462.480469 C 1020.058594 433.019531 1081.679688 410.820312 1141.5 384.691406 C 1245.871094 339.089844 1344.960938 281.371094 1446.988281 218.339844 C 1442.28125 266.609375 1431.328125 314.28125 1414.171875 370.679688 C 1624.558594 302.488281 1842.960938 259.109375 2059.019531 250.859375 C 1998.691406 318.058594 1934.21875 381.511719 1860.359375 448.980469 C 2070.210938 512.761719 2280.03125 576.539062 2495.398438 649.289062 C 2450.128906 683.671875 2401.558594 713.730469 2339.308594 741.898438 C 2397.121094 769.230469 2458.351562 789.300781 2518.800781 810.421875 C 2472.121094 852.089844 2421.449219 889.261719 2374.921875 933.570312 C 2516.371094 1029.089844 2632.589844 1161.660156 2708.730469 1314.421875 C 2674.679688 1321.351562 2640.660156 1328.308594 2608.828125 1345.558594 "/>
<path fill-rule="nonzero" fill="rgb(93.75%, 55.664062%, 8.59375%)" fill-opacity="1" d="M 862.410156 1301.699219 C 948.089844 1275.390625 1037.578125 1261.710938 1131.148438 1256.761719 C 1105.589844 1245.058594 1079.96875 1233.359375 1054.890625 1220.609375 C 1027.289062 1206.660156 1000.351562 1191.421875 974.96875 1173.78125 C 926.519531 1140.058594 883.410156 1096.53125 859.019531 1042.769531 C 854.070312 1031.878906 850.828125 1018.46875 846.449219 1005.359375 C 839.460938 984.421875 829.621094 964.230469 805.46875 955.921875 C 684.898438 914.550781 543.511719 948.359375 450.089844 1035.058594 C 356.699219 1121.820312 312.539062 1256.429688 329.699219 1382.730469 C 342.121094 1474.019531 385.199219 1559.699219 448.230469 1623.269531 C 472.410156 1647.660156 499.53125 1668.78125 528.960938 1685.671875 C 522.238281 1678.828125 516.511719 1671.269531 511.828125 1663.199219 C 483.898438 1615.46875 490.410156 1549.289062 520.980469 1501.46875 C 556.738281 1445.519531 617.878906 1410.808594 679.949219 1387.199219 C 873.148438 1313.699219 1087.230469 1328.96875 1292.308594 1332.058594 C 1154.339844 1289.371094 1006.679688 1295.308594 862.410156 1301.699219 Z M 711.300781 1106.429688 C 702.210938 1097.488281 693.660156 1084.5 698.761719 1072.800781 C 702.300781 1064.609375 711.71875 1060.289062 720.601562 1060.050781 C 729.480469 1059.839844 738.089844 1062.960938 746.429688 1066.078125 C 761.671875 1105.5 800.519531 1140.089844 845.96875 1152.179688 C 789.808594 1154.671875 743.550781 1138.019531 711.300781 1106.429688 Z M 887.28125 1365.390625 C 812.429688 1374.691406 737.128906 1389.628906 669.871094 1423.679688 C 602.578125 1457.761719 543.511719 1512.988281 517.800781 1583.878906 C 554.25 1557.300781 613.621094 1553.609375 667.558594 1542.660156 C 757.171875 1524.480469 840.210938 1482.238281 928.859375 1459.738281 C 984.269531 1445.640625 1041.359375 1439.398438 1097.28125 1427.339844 C 1153.171875 1415.28125 1209.058594 1396.738281 1254.089844 1361.519531 C 1133.578125 1349.160156 1009.589844 1350.238281 887.28125 1365.390625 Z M 1344.71875 856.558594 C 1328.398438 857.910156 1306.441406 862.980469 1284.480469 868.050781 C 1321.769531 900.511719 1334.550781 949.46875 1319.671875 989.730469 C 1304.761719 1029.988281 1263.210938 1058.820312 1220.28125 1058.730469 C 1177.351562 1058.578125 1135.949219 1029.511719 1121.339844 989.160156 C 1102.859375 999.71875 1089.359375 1012.53125 1079.730469 1027.800781 C 1080.03125 1028.398438 1079.878906 1028.671875 1079.699219 1028.941406 C 1103.878906 1088.941406 1165.410156 1133.28125 1230.03125 1134.75 C 1294.679688 1136.25 1358.160156 1094.761719 1382.789062 1034.96875 C 1407.421875 975.238281 1391.609375 901.050781 1344.71875 856.558594 "/>
<path fill-rule="nonzero" fill="rgb(74.804688%, 45.506287%, 9.008789%)" fill-opacity="1" d="M 511.800781 1663.230469 C 481.949219 1636.890625 455.820312 1606.589844 435.449219 1572.449219 C 399.058594 1511.339844 382.378906 1437.210938 396.570312 1367.550781 C 410.761719 1297.828125 457.859375 1234.019531 523.410156 1206.390625 C 490.46875 1243.078125 467.429688 1288.53125 457.320312 1336.769531 C 513.539062 1270.109375 596.578125 1226.730469 683.398438 1218.660156 C 595.558594 1256.96875 525.421875 1333.980469 495.480469 1425 C 520.769531 1367.910156 569.878906 1323.808594 624.929688 1294.230469 C 679.980469 1264.648438 741.03125 1248.300781 801.898438 1234.320312 C 765.359375 1249.351562 732.898438 1274.28125 708.960938 1305.71875 C 816.570312 1253.460938 935.308594 1224.359375 1054.890625 1220.640625 C 1079.96875 1233.390625 1105.589844 1245.089844 1131.148438 1256.789062 C 1037.578125 1261.738281 948.089844 1275.421875 862.410156 1301.730469 C 1006.679688 1295.339844 1154.339844 1289.398438 1292.28125 1332.121094 C 1087.199219 1329.03125 873.148438 1313.761719 679.921875 1387.261719 C 617.851562 1410.871094 556.738281 1445.578125 520.949219 1501.53125 C 490.378906 1549.351562 483.871094 1615.5 511.800781 1663.230469 Z M 887.28125 1365.390625 C 812.429688 1374.691406 737.128906 1389.628906 669.871094 1423.679688 C 602.578125 1457.761719 543.511719 1512.988281 517.800781 1583.878906 C 554.25 1557.300781 613.621094 1553.609375 667.558594 1542.660156 C 757.171875 1524.480469 840.210938 1482.238281 928.859375 1459.738281 C 984.269531 1445.640625 1041.359375 1439.398438 1097.28125 1427.339844 C 1153.171875 1415.28125 1209.058594 1396.738281 1254.089844 1361.519531 C 1133.578125 1349.160156 1009.589844 1350.238281 887.28125 1365.390625 "/>
<path fill-rule="nonzero" fill="rgb(94.921875%, 94.921875%, 94.921875%)" fill-opacity="1" d="M 1283.519531 893.308594 C 1270.050781 881.308594 1249.109375 884.550781 1239.121094 896.941406 C 1229.160156 909.300781 1231.171875 929.550781 1243.378906 939.75 C 1255.558594 949.949219 1275.839844 948.300781 1286.25 936.269531 C 1296.628906 924.238281 1295.339844 903.929688 1283.519531 893.308594 Z M 2599.738281 1463.371094 C 2570.160156 1379.96875 2502.480469 1305.210938 2415.328125 1289.878906 C 2472.359375 1273.738281 2531.851562 1266.421875 2591.101562 1268.21875 C 2591.339844 1268.25 2591.550781 1268.25 2591.789062 1268.25 C 2517.75 1115.789062 2403.300781 992.820312 2265.148438 908.160156 C 2324.371094 878.910156 2368.289062 853.019531 2404.171875 818.671875 C 2329.378906 809.160156 2258.730469 790.769531 2193.660156 760.410156 C 2260.320312 737.851562 2313.269531 702.390625 2358.179688 658.679688 C 2159.460938 591.75 1953.421875 532.320312 1746.03125 477.570312 C 1744.171875 477.058594 1742.28125 476.578125 1740.421875 476.070312 C 1797.808594 428.671875 1856.851562 373.351562 1915.921875 318.089844 C 1700.308594 339.421875 1488.359375 392.578125 1284.660156 467.96875 C 1316.039062 414.871094 1347.601562 360.808594 1379.160156 306.78125 C 1267.800781 361.410156 1151.398438 418.050781 1033.828125 472.019531 C 982.769531 495.449219 930.929688 518.730469 886.859375 553.621094 C 842.851562 588.480469 806.730469 636.839844 798.660156 692.460938 C 792.570312 668.429688 786.449219 644.398438 780.328125 620.339844 C 720.539062 668.488281 671.191406 725.578125 630.300781 788.160156 C 616.890625 808.679688 604.199219 830.101562 597.269531 853.648438 C 590.339844 877.171875 589.5 903.238281 599.371094 925.738281 C 612 930.03125 622.261719 930.988281 632.488281 931.949219 C 624.570312 900.839844 625.980469 867.449219 636.449219 837.121094 C 639.179688 865.199219 645.691406 892.949219 655.621094 919.351562 C 678.269531 915.78125 700.890625 912.148438 723.539062 908.578125 C 708.601562 856.109375 712.921875 797.578125 735.03125 746.550781 C 735.660156 745.050781 736.320312 743.550781 736.980469 742.050781 C 722.070312 796.050781 734.308594 856.769531 768.929688 900.78125 C 810.75 768.300781 926.371094 657.78125 1062.839844 628.050781 C 1047.808594 635.488281 1032.691406 642.960938 1017.75 650.730469 C 978.75 670.980469 940.859375 693.328125 908.25 722.578125 C 863.128906 762.988281 828.390625 818.941406 826.980469 879.511719 C 825.601562 940.078125 864.359375 1003.199219 923.371094 1017.148438 C 960.421875 1025.941406 999.808594 1015.019531 1033.140625 996.601562 C 1066.46875 978.148438 1095.179688 952.558594 1125.148438 929.039062 C 1233.539062 844.289062 1362.328125 785.789062 1497.480469 759.960938 C 1473 780.511719 1448.488281 801.089844 1424.011719 821.671875 C 1543.078125 781.949219 1653.179688 738.269531 1763.339844 694.621094 C 1654.199219 760.140625 1559.25 849.121094 1486.769531 953.761719 C 1522.679688 943.261719 1558.53125 930.570312 1594.410156 917.878906 C 1529.308594 980.761719 1464.210938 1043.609375 1399.109375 1106.488281 C 1364.96875 1139.460938 1328.761719 1173.628906 1282.980469 1186.230469 C 1240.261719 1197.988281 1193.820312 1189.078125 1153.890625 1169.789062 C 1113.960938 1150.5 1079.609375 1121.519531 1046.878906 1091.578125 C 1070.25 1168.320312 1142.339844 1222.320312 1219.980469 1243.351562 C 1297.589844 1264.410156 1380.238281 1256.730469 1458.988281 1240.53125 C 1542.570312 1223.371094 1632.148438 1190.460938 1672.800781 1115.398438 C 1618.199219 1239.238281 1474.679688 1317.089844 1341.121094 1295.28125 C 1421.398438 1334.910156 1502.820312 1358.609375 1585.921875 1369.828125 C 1510.558594 1368.808594 1432.800781 1368.179688 1363.050781 1396.738281 C 1433.039062 1421.519531 1498.410156 1459.140625 1554.960938 1507.230469 C 1476.628906 1484.21875 1401.449219 1473.871094 1326.898438 1477.378906 C 1367.21875 1502.160156 1407.570312 1526.910156 1447.921875 1551.691406 C 1321.648438 1478.640625 1164.808594 1460.578125 1025.308594 1503.089844 C 1126.859375 1519.710938 1226.191406 1548.929688 1320.839844 1589.21875 C 1371.269531 1610.730469 1420.410156 1635.328125 1467.808594 1662.929688 C 1468.351562 1663.230469 1468.859375 1663.53125 1469.398438 1663.828125 C 1471.589844 1665.121094 1473.75 1666.441406 1475.96875 1667.761719 C 1547.070312 1711.410156 1603.589844 1783.828125 1648.710938 1853.730469 C 1688.550781 1915.378906 1725.808594 1979.699219 1746.988281 2049.960938 C 1768.199219 2120.25 1772.28125 2197.589844 1744.859375 2267.640625 C 1819.679688 2316.03125 1897.679688 2359.5 1974.808594 2394.808594 C 2083.738281 2275.199219 2153.550781 2120.488281 2170.859375 1964.070312 C 2265.511719 2032.980469 2338.441406 2131.351562 2382.359375 2237.640625 C 2477.671875 2014.648438 2495.789062 1759.679688 2432.101562 1527.179688 C 2498.730469 1595.640625 2558.128906 1665.871094 2612.191406 1739.941406 C 2626.859375 1637.851562 2629.320312 1546.738281 2599.738281 1463.371094 "/>
<path fill-rule="nonzero" fill="rgb(81.639099%, 86.326599%, 94.921875%)" fill-opacity="1" d="M 1379.101562 306.78125 C 1307.101562 360.300781 1242.988281 399.808594 1167.808594 434.910156 C 1092.628906 470.011719 1015.921875 503.429688 948.511719 551.851562 C 881.128906 600.269531 822.75 665.878906 799.648438 745.558594 C 779.21875 723.960938 767.609375 694.320312 767.789062 664.589844 C 691.890625 710.488281 649.441406 805.800781 666.03125 892.921875 C 677.371094 840.328125 699.480469 786.78125 736.921875 742.050781 C 736.230469 743.550781 735.601562 745.050781 734.96875 746.550781 C 712.859375 797.609375 708.539062 856.109375 723.480469 908.578125 C 700.828125 912.148438 678.210938 915.78125 655.558594 919.351562 C 645.628906 892.949219 639.121094 865.230469 636.390625 837.121094 C 625.921875 867.449219 624.511719 900.839844 632.429688 931.949219 C 622.199219 930.960938 611.941406 930.03125 599.308594 925.738281 C 589.441406 903.269531 590.28125 877.199219 597.210938 853.648438 C 604.140625 830.128906 616.828125 808.679688 630.238281 788.160156 C 671.160156 725.578125 720.480469 668.488281 780.269531 620.339844 C 786.390625 644.371094 792.511719 668.398438 798.601562 692.460938 C 806.671875 636.839844 842.789062 588.480469 886.800781 553.621094 C 930.839844 518.730469 982.710938 495.449219 1033.769531 472.019531 C 1151.339844 418.050781 1267.738281 361.410156 1379.101562 306.78125 Z M 1284.601562 467.96875 C 1233.960938 510.691406 1192.351562 554.070312 1150.410156 605.371094 C 1260.121094 522.449219 1390.078125 470.488281 1521.570312 430.261719 C 1653.089844 390.03125 1786.109375 364.621094 1915.828125 318.121094 C 1700.21875 339.449219 1488.300781 392.578125 1284.601562 467.96875 Z M 1740.359375 476.101562 C 1738.710938 476.371094 1667.820312 521.640625 1630.5 554.101562 C 1751.460938 538.558594 1875.421875 546.601562 1993.351562 577.648438 C 2112.269531 609 2237.160156 662.011719 2358.121094 658.679688 C 2159.398438 591.75 1947.71875 530.820312 1740.359375 476.101562 Z M 2265.121094 908.160156 C 2324.339844 878.910156 2368.261719 853.019531 2404.140625 818.671875 C 2312.609375 867.988281 2204.671875 894.148438 2097.179688 885.421875 C 2289.71875 974.851562 2458.199219 1102.53125 2591.789062 1268.25 C 2517.71875 1115.761719 2403.269531 992.820312 2265.121094 908.160156 "/>
<path fill-rule="nonzero" fill="rgb(59.959412%, 71.484375%, 94.921875%)" fill-opacity="1" d="M 2612.128906 1739.96875 C 2558.070312 1665.898438 2498.671875 1595.671875 2432.039062 1527.210938 C 2495.730469 1759.710938 2477.609375 2014.679688 2382.300781 2237.671875 C 2338.378906 2131.378906 2265.449219 2033.011719 2170.800781 1964.101562 C 2153.488281 2120.519531 2083.679688 2275.230469 1974.75 2394.839844 C 1897.589844 2359.5 1819.621094 2316.03125 1744.800781 2267.671875 C 1772.21875 2197.621094 1768.140625 2120.28125 1746.929688 2049.988281 C 1725.78125 1979.730469 1688.488281 1915.441406 1648.648438 1853.761719 C 1603.53125 1783.859375 1546.980469 1711.441406 1475.910156 1667.789062 C 1473.71875 1666.46875 1471.558594 1665.148438 1469.339844 1663.859375 C 1468.800781 1663.558594 1468.289062 1663.261719 1467.75 1662.960938 C 1420.351562 1635.359375 1371.238281 1610.761719 1320.78125 1589.25 C 1226.128906 1548.960938 1126.800781 1519.738281 1025.25 1503.121094 C 1164.78125 1460.609375 1321.589844 1478.671875 1447.859375 1551.71875 C 1407.480469 1526.941406 1367.160156 1502.191406 1326.839844 1477.410156 C 1401.390625 1473.898438 1476.570312 1484.25 1554.898438 1507.261719 C 1498.351562 1459.199219 1432.949219 1421.550781 1362.988281 1396.769531 C 1432.738281 1368.210938 1510.5 1368.839844 1585.859375 1369.859375 C 1502.761719 1358.640625 1421.339844 1334.941406 1341.058594 1295.308594 C 1474.621094 1317.121094 1618.140625 1239.269531 1672.738281 1115.429688 C 1632.089844 1190.488281 1542.511719 1223.371094 1458.929688 1240.558594 C 1380.148438 1256.761719 1297.53125 1264.441406 1219.921875 1243.378906 C 1142.308594 1222.351562 1070.191406 1168.351562 1046.820312 1091.609375 C 1079.550781 1121.519531 1113.898438 1150.5 1153.828125 1169.820312 C 1193.761719 1189.078125 1240.171875 1198.019531 1282.921875 1186.261719 C 1328.699219 1173.660156 1364.910156 1139.460938 1399.050781 1106.519531 C 1464.148438 1043.640625 1529.25 980.789062 1594.351562 917.910156 C 1558.46875 930.601562 1522.621094 943.261719 1486.710938 953.789062 C 1559.191406 849.148438 1654.171875 760.171875 1763.28125 694.648438 C 1653.148438 738.300781 1543.019531 781.980469 1423.949219 821.699219 C 1448.429688 801.148438 1472.941406 780.570312 1497.421875 759.988281 C 1362.300781 785.820312 1233.480469 844.320312 1125.089844 929.070312 C 1095.089844 952.558594 1066.410156 978.148438 1033.078125 996.628906 C 999.75 1015.050781 960.359375 1025.96875 923.308594 1017.179688 C 864.328125 1003.261719 825.539062 940.140625 826.921875 879.539062 C 828.328125 818.96875 863.070312 763.019531 908.191406 722.609375 C 940.800781 693.359375 978.691406 671.011719 1017.691406 650.761719 C 1029.691406 645.75 1041.988281 641.371094 1054.46875 637.621094 C 977.910156 672.269531 911.609375 739.738281 871.621094 820.53125 C 863.160156 837.601562 855.71875 856.230469 857.730469 875.160156 C 860.550781 901.980469 882.808594 924.121094 908.550781 932.128906 C 934.289062 940.140625 962.550781 935.851562 987.601562 925.949219 C 1012.648438 916.050781 1035.210938 900.839844 1057.921875 886.320312 C 1234.289062 773.640625 1433.160156 696.359375 1630.558594 657.839844 C 1607.101562 677.820312 1583.640625 697.800781 1560.179688 717.75 C 1670.851562 651.929688 1800.539062 618.539062 1929.238281 622.648438 C 1866.121094 647.519531 1805.460938 678.601562 1748.429688 715.320312 C 1800.871094 701.730469 1855.46875 696.511719 1909.558594 700.019531 C 1798.320312 737.550781 1694.609375 797.160156 1603.320312 878.550781 C 1673.640625 862.019531 1743.988281 845.488281 1814.339844 828.929688 C 1749.570312 885.089844 1680.988281 936.839844 1609.289062 983.789062 C 1677.421875 961.5 1746.480469 938.789062 1806.148438 899.070312 C 1771.050781 939.328125 1736.011719 979.621094 1704.179688 1021.800781 C 1867.648438 978.148438 2043.300781 981.269531 2205.121094 1030.621094 C 2113.980469 1032.511719 2023.53125 1061.070312 1950.328125 1113.238281 C 2173.230469 1082.578125 2405.488281 1141.769531 2591.070312 1268.25 C 2531.851562 1266.449219 2472.328125 1273.800781 2415.300781 1289.910156 C 2502.449219 1305.269531 2570.128906 1380 2599.710938 1463.398438 C 2629.320312 1546.738281 2626.859375 1637.851562 2612.128906 1739.96875 "/>
<path fill-rule="nonzero" fill="rgb(47.509766%, 59.179688%, 94.921875%)" fill-opacity="1" d="M 2612.128906 1739.96875 C 2593.410156 1584.628906 2488.230469 1446.511719 2361.539062 1354.679688 C 2234.851562 1262.820312 2083.050781 1211.910156 1927.050781 1172.460938 C 2091.78125 1291.890625 2224.171875 1455.449219 2298.148438 1648.320312 C 2245.769531 1588.589844 2184.660156 1536.511719 2117.308594 1494.359375 C 2212.5 1643.21875 2279.789062 1809.871094 2313.71875 1983.03125 C 2182.410156 1818.148438 1996.648438 1697.398438 1785.089844 1647.929688 C 1908.929688 1781.96875 1979.25 1964.160156 1973.730469 2152.800781 C 1867.140625 1872.808594 1611.78125 1656.390625 1320.78125 1589.21875 C 1371.210938 1610.730469 1420.351562 1635.328125 1467.75 1662.929688 C 1468.289062 1663.230469 1468.800781 1663.53125 1469.339844 1663.828125 C 1471.53125 1665.121094 1473.691406 1666.441406 1475.910156 1667.761719 C 1547.011719 1711.410156 1603.53125 1783.828125 1648.648438 1853.730469 C 1688.488281 1915.378906 1725.75 1979.699219 1746.929688 2049.960938 C 1768.140625 2120.25 1772.21875 2197.589844 1744.800781 2267.640625 C 1819.621094 2316.03125 1897.621094 2359.5 1974.75 2394.808594 C 2083.679688 2275.199219 2153.488281 2120.488281 2170.800781 1964.070312 C 2265.449219 2032.980469 2338.378906 2131.351562 2382.300781 2237.640625 C 2477.609375 2014.648438 2495.730469 1759.679688 2432.039062 1527.179688 C 2498.699219 1595.699219 2558.101562 1665.898438 2612.128906 1739.96875 Z M 1641.601562 1939.230469 C 1578.03125 1807.648438 1456.921875 1708.46875 1320.359375 1656.480469 C 1403.789062 1748.878906 1459.078125 1866.359375 1477.050781 1989.511719 C 1403.851562 1805.28125 1227.390625 1666.199219 1031.160156 1638.121094 C 1176.121094 1730.070312 1274.941406 1891.261719 1291.980469 2076.988281 C 1224.03125 1891.558594 1092.421875 1730.160156 924.570312 1626.058594 C 922.980469 1625.070312 921.359375 1624.078125 919.738281 1623.089844 C 994.410156 1730.671875 1039.199219 1858.738281 1047.898438 1989.390625 C 1013.488281 1868.609375 955.621094 1754.578125 878.429688 1655.519531 C 913.410156 1721.21875 938.160156 1792.289062 951.480469 1865.488281 C 916.46875 1785.421875 871.46875 1709.730469 807.121094 1627.769531 C 934.199219 1900.800781 954.179688 2222.011719 861.839844 2508.660156 C 900.03125 2473.5 931.738281 2431.320312 956.941406 2379.03125 C 961.5 2419.710938 958.320312 2461.230469 947.640625 2500.710938 C 952.140625 2498.070312 956.550781 2495.371094 960.960938 2492.550781 C 1030.5 2448.121094 1085.519531 2382.328125 1105.5 2308.230469 C 1158.839844 2426.160156 1190.519531 2553.808594 1198.5 2682.988281 C 1344.78125 2543.941406 1429.199219 2342.070312 1422.988281 2131.621094 C 1501.679688 2197.378906 1569.421875 2276.25 1628.820312 2359.289062 C 1705.46875 2234.878906 1705.140625 2070.808594 1641.601562 1939.230469 "/>
<path fill-rule="nonzero" fill="rgb(94.921875%, 94.921875%, 94.921875%)" fill-opacity="1" d="M 846.421875 1005.390625 C 732.121094 970.5 600.988281 969.660156 502.828125 1037.039062 C 403.558594 1105.199219 356.640625 1232.128906 359.730469 1352.488281 C 362.191406 1448.761719 393.78125 1543.921875 448.199219 1623.328125 C 385.171875 1559.761719 342.089844 1474.078125 329.671875 1382.789062 C 312.511719 1256.488281 356.671875 1121.878906 450.058594 1035.121094 C 543.480469 948.390625 684.871094 914.609375 805.441406 955.980469 C 829.589844 964.230469 839.429688 984.449219 846.421875 1005.390625 "/>
</svg>
